<?xml version="1.0" encoding="utf-8"?>
<!-- Generator: Adobe Illustrator 18.1.1, SVG Export Plug-In . SVG Version: 6.00 Build 0)  -->
<svg version="1.1" id="Layer_1" xmlns="http://www.w3.org/2000/svg" xmlns:xlink="http://www.w3.org/1999/xlink" x="0px" y="0px"
	 viewBox="0 0 148 147.578125" enable-background="new 0 0 148 147.578125" xml:space="preserve">
<g id="XMLID_12_">
	<path id="XMLID_2_" fill="#52B8CC" d="M21,42H9c-3.3137083,0-6-2.6862907-6-6V12C3,5.3725829,8.3725834,0,15,0h6
		c3.3137093,0,6,2.6862915,6,6v30C27,39.3137093,24.3137093,42,21,42z"/>
	<path id="XMLID_3_" fill="#DBDBDB" d="M51,76H39c-3.3137093,0-6-2.6862946-6-6V40c0-3.3137093,2.6862907-6,6-6h12
		c3.3137093,0,6,2.6862907,6,6v30C57,73.3137054,54.3137093,76,51,76z"/>
	<path id="XMLID_4_" fill="#52B8CC" d="M81,42H69c-3.3137054,0-6-2.6862907-6-6V6c0-3.3137085,2.6862946-6,6-6h12
		c3.3137054,0,6,2.6862915,6,6v30C87,39.3137093,84.3137054,42,81,42z"/>
	<path id="XMLID_5_" fill="#DBDBDB" d="M111,76H99c-3.3137054,0-6-2.6862946-6-6V40c0-3.3137093,2.6862946-6,6-6h12
		c3.3137054,0,6,2.6862907,6,6v30C117,73.3137054,114.3137054,76,111,76z"/>
	<path id="XMLID_6_" fill="#52B8CC" d="M141,42h-12c-3.3137054,0-6-2.6862907-6-6V6c0-3.3137085,2.6862946-6,6-6h6
		c6.6274109,0,12,5.3725829,12,12v24C147,39.3137093,144.3137054,42,141,42z"/>
	<path id="XMLID_10_" fill="#52B8CC" d="M21,76H9c-3.3137083,0-6-2.6862946-6-6V54c0-3.3137093,2.6862917-6,6-6h12
		c3.3137093,0,6,2.6862907,6,6v16C27,73.3137054,24.3137093,76,21,76z"/>
	<path id="XMLID_9_" fill="#52B8CC" d="M51,28H39c-3.3137093,0-6-2.6862907-6-6V6c0-3.3137085,2.6862907-6,6-6h12
		c3.3137093,0,6,2.6862915,6,6v16C57,25.3137093,54.3137093,28,51,28z"/>
	<path id="XMLID_8_" fill="#52B8CC" d="M81,76H69c-3.3137054,0-6-2.6862946-6-6V54c0-3.3137093,2.6862946-6,6-6h12
		c3.3137054,0,6,2.6862907,6,6v16C87,73.3137054,84.3137054,76,81,76z"/>
	<path id="XMLID_7_" fill="#52B8CC" d="M111,28H99c-3.3137054,0-6-2.6862907-6-6V6c0-3.3137085,2.6862946-6,6-6h12
		c3.3137054,0,6,2.6862915,6,6v16C117,25.3137093,114.3137054,28,111,28z"/>
	<path id="XMLID_11_" fill="#52B8CC" d="M141,76h-12c-3.3137054,0-6-2.6862946-6-6V54c0-3.3137093,2.6862946-6,6-6h12
		c3.3137054,0,6,2.6862907,6,6v16C147,73.3137054,144.3137054,76,141,76z"/>
</g>
<g>
	<path fill="#4D4D4D" d="M3.628418,98.8095703h7.3505859l5.1357422,13.8056641l1.8378906,5.3720703h0.1884766l1.8374023-5.3720703
		l4.9946289-13.8056641h7.3037109V129.53125h-6.4555664v-11.2617188c0-0.7539062,0.03125-1.5859375,0.0942383-2.4970703
		c0.0625-0.9111328,0.1416016-1.8300781,0.2358398-2.7568359c0.0942383-0.9257812,0.1884766-1.8369141,0.2827148-2.7324219
		s0.1884766-1.7202148,0.2827148-2.4741211h-0.1884766l-2.5444336,7.1147461l-4.7119141,11.921875h-2.7802734l-4.7119141-11.921875
		l-2.4501953-7.1147461H9.1411133c0.0942383,0.7539062,0.1884766,1.5786133,0.2827148,2.4741211
		s0.1801758,1.8066406,0.2592773,2.7324219c0.078125,0.9267578,0.1484375,1.8457031,0.2119141,2.7568359
		c0.0625,0.9111328,0.0942383,1.7431641,0.0942383,2.4970703V129.53125H3.628418V98.8095703z"/>
	<path fill="#4D4D4D" d="M37.1772461,123.0283203c0-2.4501953,1.0366211-4.3652344,3.1098633-5.7480469
		c2.0732422-1.3818359,5.418457-2.3085938,10.0361328-2.7802734c-0.0634766-1.0361328-0.3769531-1.8613281-0.9423828-2.4736328
		s-1.4770508-0.9189453-2.7329102-0.9189453c-1.0058594,0-2.0107422,0.1884766-3.015625,0.5654297
		c-1.0058594,0.3769531-2.0732422,0.8955078-3.2041016,1.5546875l-2.4501953-4.5703125
		c1.5078125-0.9106445,3.0864258-1.6489258,4.7353516-2.2143555c1.6494141-0.5654297,3.3999023-0.8481445,5.2539062-0.8481445
		c3.015625,0,5.3164062,0.855957,6.902832,2.5678711C56.4560547,109.875,57.25,112.5371094,57.25,116.1494141V129.53125h-5.6542969
		l-0.5185547-2.4033203h-0.1411133c-1.0058594,0.8798828-2.065918,1.5947266-3.1806641,2.1445312
		c-1.1152344,0.5488281-2.3325195,0.8242188-3.6518555,0.8242188c-1.0683594,0-2.0258789-0.1806641-2.8740234-0.5419922
		c-0.8481445-0.3603516-1.5712891-0.8632812-2.1674805-1.5078125c-0.597168-0.6435547-1.0605469-1.3896484-1.3901367-2.2382812
		C37.3417969,124.9609375,37.1772461,124.0341797,37.1772461,123.0283203z M43.7739258,122.5107422
		c0,0.7539062,0.2426758,1.3115234,0.7299805,1.6728516c0.4868164,0.3613281,1.1381836,0.5410156,1.9555664,0.5410156
		c0.8164062,0,1.5078125-0.171875,2.0732422-0.5175781s1.1616211-0.8320312,1.7905273-1.4609375v-4.0996094
		c-2.4819336,0.3466797-4.1933594,0.8486328-5.1357422,1.5078125
		C44.2451172,120.8144531,43.7739258,121.5996094,43.7739258,122.5107422z"/>
	<path fill="#4D4D4D" d="M60.8779297,117.8457031c0-1.9472656,0.3300781-3.6826172,0.9897461-5.2070312
		c0.659668-1.5234375,1.5463867-2.8032227,2.6621094-3.8398438c1.1147461-1.0366211,2.4101562-1.8295898,3.887207-2.3793945
		c1.4760742-0.5493164,3.015625-0.824707,4.6176758-0.824707c1.4443359,0,2.7485352,0.2436523,3.9106445,0.7304688
		c1.1621094,0.4873047,2.1357422,1.1386719,2.921875,1.9550781l-3.1572266,4.2880859
		c-1.0996094-0.9111328-2.1835938-1.3662109-3.2509766-1.3662109c-1.6962891,0-3.0322266,0.5966797-4.0053711,1.7900391
		c-0.9741211,1.1943359-1.4604492,2.8115234-1.4604492,4.8535156s0.4946289,3.6601562,1.4838867,4.8535156
		c0.9897461,1.1943359,2.2382812,1.7900391,3.7460938,1.7900391c0.8481445,0,1.6176758-0.171875,2.309082-0.5185547
		c0.6904297-0.3447266,1.3193359-0.7373047,1.8847656-1.1777344l2.7802734,4.3818359
		c-1.1308594,1.0058594-2.3876953,1.7441406-3.7695312,2.2148438c-1.3828125,0.4716797-2.7177734,0.7070312-4.0053711,0.7070312
		c-1.6337891,0-3.1499023-0.2753906-4.5473633-0.8242188c-1.3979492-0.5498047-2.6147461-1.34375-3.6513672-2.3798828
		c-1.0366211-1.0371094-1.8540039-2.3164062-2.4501953-3.8398438
		C61.1762695,121.5292969,60.8779297,119.7939453,60.8779297,117.8457031z"/>
	<path fill="#4D4D4D" d="M84.578125,133.1123047c0.2832031,0.0625,0.5488281,0.0947266,0.8007812,0.0947266
		c1.1621094,0,2.0576172-0.2832031,2.6865234-0.8486328c0.6279297-0.5654297,1.0986328-1.3037109,1.4130859-2.2148438
		l0.3300781-1.2246094l-9-22.7587891h6.9736328l3.3457031,10.0361328c0.3447266,1.0683594,0.6591797,2.1523438,0.9423828,3.2509766
		c0.2822266,1.1005859,0.5810547,2.2314453,0.8955078,3.3925781h0.1884766
		c0.2509766-1.0986328,0.5097656-2.2060547,0.7773438-3.3212891c0.2666016-1.1152344,0.5419922-2.2216797,0.8242188-3.3222656
		l2.8271484-10.0361328h6.6435547l-8.1044922,23.6064453c-0.5654297,1.4765625-1.1542969,2.7724609-1.7666016,3.8876953
		c-0.6123047,1.1142578-1.3193359,2.0410156-2.1201172,2.7802734c-0.8017578,0.7373047-1.7128906,1.2958984-2.7333984,1.6728516
		c-1.0214844,0.3769531-2.2226562,0.5654297-3.6044922,0.5654297c-0.7226562,0-1.3359375-0.0400391-1.8378906-0.1181641
		c-0.5029297-0.0791016-0.9892578-0.1962891-1.4599609-0.3535156l1.2246094-5.2773438
		C84.0439453,132.9863281,84.2958984,133.0488281,84.578125,133.1123047z"/>
	<path fill="#4D4D4D" d="M103.8974609,125.7617188c0-1.2558594,0.4003906-2.3007812,1.2021484-3.1337891
		c0.8007812-0.8320312,1.7978516-1.2480469,2.9921875-1.2480469c1.1933594,0,2.1904297,0.4160156,2.9912109,1.2480469
		c0.8017578,0.8330078,1.2021484,1.8779297,1.2021484,3.1337891c0,1.2246094-0.4003906,2.2539062-1.2021484,3.0859375
		c-0.8007812,0.8320312-1.7978516,1.2490234-2.9912109,1.2490234c-1.1943359,0-2.1914062-0.4169922-2.9921875-1.2490234
		C104.2978516,128.015625,103.8974609,126.9863281,103.8974609,125.7617188z"/>
	<path fill="#4D4D4D" d="M119.0224609,106.1601562h6.9257812v23.2294922c0,1.2880859-0.1337891,2.4980469-0.4003906,3.6289062
		c-0.2675781,1.1308594-0.7226562,2.1201172-1.3662109,2.9677734c-0.6445312,0.8486328-1.5009766,1.5234375-2.5683594,2.0263672
		c-1.0683594,0.5019531-2.4023438,0.7539062-4.0048828,0.7539062c-0.9736328,0-1.7822266-0.0634766-2.4267578-0.1884766
		c-0.6435547-0.1259766-1.2011719-0.2822266-1.6728516-0.4707031l1.2255859-5.0888672
		c0.3144531,0.09375,0.6123047,0.171875,0.8945312,0.2353516c0.2832031,0.0625,0.5966797,0.09375,0.9433594,0.09375
		c0.9101562,0,1.5458984-0.2988281,1.9082031-0.8945312c0.3603516-0.5976562,0.5419922-1.5556641,0.5419922-2.875V106.1601562z
		 M122.5087891,102.7202148c-1.1621094,0-2.1201172-0.3369141-2.8740234-1.0126953
		c-0.7539062-0.675293-1.1308594-1.546875-1.1308594-2.6152344c0-1.0678711,0.3769531-1.9321289,1.1308594-2.5917969
		s1.7119141-0.9892578,2.8740234-0.9892578s2.1201172,0.3295898,2.8740234,0.9892578s1.1308594,1.5239258,1.1308594,2.5917969
		c0,1.0683594-0.3769531,1.9399414-1.1308594,2.6152344C124.6289062,102.3833008,123.6708984,102.7202148,122.5087891,102.7202148z"
		/>
	<path fill="#4D4D4D" d="M132.1679688,122.5107422c1.0673828,0.8173828,2.0888672,1.4296875,3.0625,1.8369141
		c0.9736328,0.4091797,1.9628906,0.6132812,2.96875,0.6132812c1.0361328,0,1.7900391-0.1728516,2.2617188-0.5185547
		c0.4707031-0.3457031,0.7070312-0.8320312,0.7070312-1.4609375c0-0.3769531-0.1347656-0.7138672-0.4013672-1.0126953
		c-0.2666016-0.2978516-0.6279297-0.5732422-1.0830078-0.8251953c-0.4560547-0.2509766-0.9658203-0.4785156-1.53125-0.6826172
		s-1.1474609-0.4316406-1.7441406-0.6835938c-0.7226562-0.2822266-1.4453125-0.6123047-2.1669922-0.9892578
		c-0.7236328-0.3769531-1.3828125-0.8398438-1.9794922-1.3896484s-1.0830078-1.1943359-1.4599609-1.9326172
		c-0.3769531-0.7373047-0.5654297-1.59375-0.5654297-2.5673828c0-1.0673828,0.2119141-2.0576172,0.6357422-2.96875
		c0.4238281-0.9106445,1.0283203-1.6801758,1.8144531-2.309082c0.7841797-0.6279297,1.7265625-1.1225586,2.8271484-1.4838867
		c1.0986328-0.3608398,2.3242188-0.5419922,3.6748047-0.5419922c1.7910156,0,3.3613281,0.3061523,4.7119141,0.9189453
		c1.3505859,0.6123047,2.5283203,1.2954102,3.5341797,2.0493164l-3.1103516,4.1469727
		c-0.8476562-0.6279297-1.6806641-1.1152344-2.4970703-1.4609375c-0.8173828-0.3457031-1.6337891-0.5185547-2.4501953-0.5185547
		c-1.7597656,0-2.6386719,0.6123047-2.6386719,1.8378906c0,0.3769531,0.125,0.6992188,0.3769531,0.9658203
		c0.2509766,0.2675781,0.5888672,0.5107422,1.0126953,0.7304688c0.4248047,0.2197266,0.9111328,0.4316406,1.4609375,0.6357422
		c0.5498047,0.2050781,1.1230469,0.4169922,1.7197266,0.6367188c0.7539062,0.2822266,1.5,0.6044922,2.2382812,0.9658203
		s1.4140625,0.8085938,2.0263672,1.3427734s1.1074219,1.1855469,1.484375,1.9550781
		c0.3769531,0.7705078,0.5654297,1.6894531,0.5654297,2.7568359c0,1.0683594-0.2050781,2.0576172-0.6123047,2.96875
		c-0.4091797,0.9111328-1.0214844,1.7041016-1.8378906,2.3789062c-0.8173828,0.6757812-1.8222656,1.2099609-3.015625,1.6025391
		c-1.1943359,0.3925781-2.5761719,0.5888672-4.1464844,0.5888672c-1.5400391,0-3.1181641-0.2988281-4.7353516-0.8955078
		c-1.6181641-0.5957031-3.0244141-1.3818359-4.2177734-2.3554688L132.1679688,122.5107422z"/>
</g>
</svg>
